<svg width="640" height="640" viewBox="0 0 640 640" fill="none" xmlns="http://www.w3.org/2000/svg">
<rect width="640" height="640" rx="100" fill="url(#paint0_radial_251_558)"/>
<path opacity="0.8" d="M306.242 368.888C312.46 372.478 314.59 380.429 311 386.646L299.767 406.103C296.177 412.321 288.226 414.451 282.009 410.861L122.08 318.526C117.991 316.165 115.503 311.772 115.582 307.051L115.624 304.537C115.676 301.429 116.84 298.443 118.904 296.119L132.648 280.651C136.746 276.038 143.522 274.942 148.866 278.027L306.242 368.888Z" fill="url(#paint1_linear_251_558)"/>
<path d="M282.009 189.345C288.227 185.755 296.177 187.886 299.767 194.103L311.014 213.584C314.599 219.792 312.481 227.731 306.28 231.328L145.607 324.559C141.558 326.908 136.56 326.899 132.519 324.536L122.141 318.466C118.155 316.134 115.705 311.862 115.705 307.244L115.705 299.72L115.589 293.163C115.506 288.437 117.994 284.039 122.087 281.676L282.009 189.345Z" fill="url(#paint2_linear_251_558)"/>
<path opacity="0.8" d="M333.021 284.306C326.803 280.716 324.672 272.766 328.262 266.548L339.495 247.091C343.085 240.874 351.036 238.743 357.254 242.333L517.182 334.668C521.272 337.029 523.759 341.422 523.68 346.143L523.638 348.657C523.587 351.765 522.423 354.751 520.358 357.075L506.615 372.543C502.516 377.156 495.74 378.252 490.396 375.167L333.021 284.306Z" fill="url(#paint3_linear_251_558)"/>
<path d="M357.254 463.849C351.036 467.439 343.085 465.309 339.495 459.091L328.248 439.61C324.664 433.402 326.782 425.464 332.982 421.866L493.655 328.636C497.704 326.287 502.703 326.295 506.743 328.658L517.121 334.729C521.108 337.06 523.558 341.332 523.558 345.95L523.558 353.474L523.673 360.031C523.757 364.757 521.268 369.155 517.175 371.518L357.254 463.849Z" fill="url(#paint4_linear_251_558)"/>
<g opacity="0.5" filter="url(#filter0_f_251_558)">
<rect x="354.143" y="153" width="51.1098" height="336.62" rx="13" transform="rotate(20 354.143 153)" fill="url(#paint5_linear_251_558)"/>
</g>
<g filter="url(#filter1_d_251_558)">
<rect x="354.143" y="155.644" width="48.4662" height="332.214" rx="13" transform="rotate(20 354.143 155.644)" fill="url(#paint6_linear_251_558)"/>
</g>
<circle cx="449.217" cy="248.955" r="49.2509" fill="url(#paint7_linear_251_558)"/>
<g filter="url(#filter2_d_251_558)">
<path d="M434.903 244.953H427.907C427.814 244.235 427.623 243.587 427.334 243.008C427.044 242.43 426.662 241.936 426.186 241.525C425.71 241.115 425.146 240.802 424.493 240.588C423.85 240.364 423.136 240.252 422.352 240.252C420.963 240.252 419.764 240.592 418.757 241.273C417.759 241.954 416.989 242.938 416.448 244.226C415.916 245.513 415.65 247.07 415.65 248.899C415.65 250.802 415.921 252.397 416.462 253.684C417.012 254.962 417.782 255.927 418.771 256.58C419.769 257.224 420.949 257.546 422.31 257.546C423.075 257.546 423.77 257.448 424.395 257.252C425.03 257.056 425.585 256.771 426.06 256.398C426.545 256.016 426.942 255.554 427.25 255.013C427.567 254.463 427.786 253.842 427.907 253.152L434.903 253.194C434.782 254.463 434.413 255.713 433.798 256.944C433.191 258.175 432.357 259.299 431.293 260.316C430.23 261.323 428.933 262.126 427.403 262.723C425.883 263.32 424.139 263.618 422.171 263.618C419.577 263.618 417.255 263.049 415.203 261.911C413.16 260.764 411.546 259.094 410.362 256.902C409.177 254.71 408.585 252.042 408.585 248.899C408.585 245.746 409.186 243.074 410.39 240.881C411.593 238.689 413.221 237.024 415.273 235.886C417.325 234.748 419.624 234.179 422.171 234.179C423.906 234.179 425.51 234.422 426.984 234.907C428.458 235.383 429.754 236.082 430.873 237.006C431.993 237.92 432.902 239.044 433.602 240.378C434.301 241.712 434.735 243.237 434.903 244.953Z" fill="white"/>
<path d="M454.355 243.162C454.262 242.136 453.847 241.339 453.11 240.77C452.382 240.191 451.342 239.902 449.99 239.902C449.094 239.902 448.348 240.019 447.751 240.252C447.154 240.485 446.706 240.807 446.408 241.217C446.109 241.618 445.955 242.08 445.946 242.602C445.927 243.032 446.011 243.409 446.198 243.736C446.394 244.062 446.674 244.351 447.037 244.603C447.41 244.846 447.858 245.06 448.381 245.247C448.903 245.433 449.491 245.597 450.144 245.737L452.606 246.296C454.024 246.604 455.274 247.015 456.356 247.528C457.447 248.041 458.361 248.652 459.098 249.36C459.844 250.069 460.409 250.886 460.791 251.809C461.174 252.732 461.37 253.768 461.379 254.915C461.37 256.725 460.913 258.278 460.008 259.574C459.103 260.871 457.802 261.864 456.104 262.555C454.416 263.245 452.378 263.59 449.99 263.59C447.592 263.59 445.503 263.231 443.721 262.513C441.94 261.794 440.555 260.703 439.566 259.239C438.577 257.774 438.069 255.923 438.041 253.684H444.673C444.729 254.607 444.976 255.377 445.414 255.993C445.853 256.608 446.454 257.075 447.219 257.392C447.993 257.709 448.889 257.867 449.906 257.867C450.838 257.867 451.631 257.742 452.284 257.49C452.947 257.238 453.455 256.888 453.809 256.44C454.164 255.993 454.346 255.48 454.355 254.901C454.346 254.36 454.178 253.898 453.851 253.516C453.525 253.124 453.021 252.788 452.34 252.509C451.669 252.219 450.81 251.954 449.766 251.711L446.772 251.011C444.29 250.442 442.336 249.524 440.909 248.255C439.482 246.977 438.773 245.252 438.782 243.078C438.773 241.306 439.249 239.753 440.209 238.419C441.17 237.085 442.499 236.045 444.197 235.299C445.895 234.553 447.83 234.179 450.004 234.179C452.224 234.179 454.15 234.557 455.782 235.313C457.424 236.059 458.697 237.108 459.602 238.461C460.507 239.813 460.968 241.381 460.987 243.162H454.355Z" fill="white"/>
<path d="M480.366 243.162C480.272 242.136 479.857 241.339 479.12 240.77C478.393 240.191 477.353 239.902 476 239.902C475.105 239.902 474.359 240.019 473.762 240.252C473.165 240.485 472.717 240.807 472.418 241.217C472.12 241.618 471.966 242.08 471.957 242.602C471.938 243.032 472.022 243.409 472.208 243.736C472.404 244.062 472.684 244.351 473.048 244.603C473.421 244.846 473.869 245.06 474.391 245.247C474.914 245.433 475.501 245.597 476.154 245.737L478.617 246.296C480.035 246.604 481.284 247.015 482.366 247.528C483.458 248.041 484.372 248.652 485.109 249.36C485.855 250.069 486.419 250.886 486.802 251.809C487.184 252.732 487.38 253.768 487.39 254.915C487.38 256.725 486.923 258.278 486.018 259.574C485.114 260.871 483.812 261.864 482.115 262.555C480.426 263.245 478.388 263.59 476 263.59C473.603 263.59 471.514 263.231 469.732 262.513C467.95 261.794 466.565 260.703 465.576 259.239C464.588 257.774 464.079 255.923 464.051 253.684H470.683C470.739 254.607 470.987 255.377 471.425 255.993C471.863 256.608 472.465 257.075 473.23 257.392C474.004 257.709 474.9 257.867 475.916 257.867C476.849 257.867 477.642 257.742 478.295 257.49C478.957 257.238 479.466 256.888 479.82 256.44C480.174 255.993 480.356 255.48 480.366 254.901C480.356 254.36 480.188 253.898 479.862 253.516C479.535 253.124 479.032 252.788 478.351 252.509C477.679 252.219 476.821 251.954 475.776 251.711L472.782 251.011C470.301 250.442 468.347 249.524 466.92 248.255C465.492 246.977 464.784 245.252 464.793 243.078C464.784 241.306 465.259 239.753 466.22 238.419C467.181 237.085 468.51 236.045 470.208 235.299C471.905 234.553 473.841 234.179 476.014 234.179C478.234 234.179 480.16 234.557 481.793 235.313C483.435 236.059 484.708 237.108 485.613 238.461C486.517 239.813 486.979 241.381 486.998 243.162H480.366Z" fill="white"/>
</g>
<circle cx="178.251" cy="378.251" r="52.2514" fill="url(#paint8_linear_251_558)"/>
<g filter="url(#filter3_d_251_558)">
<path d="M164.089 360.418H172.012V383.408C172.001 385.562 171.487 387.445 170.47 389.058C169.452 390.66 168.045 391.905 166.249 392.792C164.463 393.68 162.395 394.123 160.046 394.123C157.968 394.123 156.08 393.761 154.38 393.036C152.692 392.31 151.344 391.185 150.337 389.659C149.342 388.132 148.849 386.179 148.86 383.797H156.864C156.897 384.653 157.059 385.383 157.351 385.989C157.654 386.585 158.071 387.034 158.602 387.337C159.132 387.64 159.765 387.791 160.501 387.791C161.27 387.791 161.919 387.629 162.449 387.304C162.98 386.969 163.38 386.476 163.651 385.827C163.932 385.178 164.078 384.371 164.089 383.408V360.418Z" fill="white"/>
<path d="M195.031 370.387C194.922 369.196 194.441 368.271 193.586 367.61C192.741 366.939 191.534 366.604 189.965 366.604C188.926 366.604 188.06 366.739 187.367 367.01C186.675 367.28 186.155 367.654 185.809 368.13C185.462 368.595 185.284 369.131 185.273 369.737C185.251 370.235 185.349 370.674 185.565 371.052C185.792 371.431 186.117 371.767 186.539 372.059C186.972 372.34 187.492 372.589 188.098 372.806C188.704 373.022 189.386 373.212 190.144 373.374L193.001 374.024C194.646 374.381 196.097 374.857 197.352 375.452C198.619 376.048 199.679 376.757 200.534 377.579C201.4 378.402 202.055 379.349 202.499 380.42C202.943 381.492 203.17 382.693 203.181 384.025C203.17 386.125 202.64 387.927 201.59 389.431C200.54 390.936 199.03 392.089 197.06 392.89C195.101 393.69 192.736 394.091 189.965 394.091C187.183 394.091 184.759 393.674 182.691 392.841C180.624 392.007 179.017 390.741 177.869 389.042C176.722 387.342 176.132 385.194 176.1 382.596H183.795C183.86 383.668 184.147 384.561 184.656 385.275C185.165 385.989 185.863 386.531 186.75 386.899C187.649 387.267 188.688 387.451 189.868 387.451C190.95 387.451 191.87 387.304 192.628 387.012C193.396 386.72 193.986 386.314 194.397 385.794C194.809 385.275 195.02 384.68 195.031 384.009C195.02 383.381 194.825 382.845 194.446 382.401C194.067 381.947 193.483 381.557 192.693 381.232C191.913 380.897 190.917 380.588 189.705 380.307L186.231 379.495C183.352 378.835 181.084 377.769 179.428 376.297C177.772 374.814 176.949 372.811 176.96 370.289C176.949 368.233 177.501 366.431 178.616 364.883C179.731 363.335 181.273 362.128 183.243 361.262C185.213 360.396 187.459 359.963 189.981 359.963C192.557 359.963 194.792 360.402 196.687 361.278C198.592 362.144 200.069 363.362 201.119 364.932C202.169 366.501 202.705 368.319 202.726 370.387H195.031Z" fill="white"/>
</g>
<circle cx="449.326" cy="440.285" r="41.429" fill="url(#paint9_linear_251_558)"/>
<g filter="url(#filter4_d_251_558)">
<path d="M412.557 450.124V430.963H417.131V438.654H424.588V430.963H429.153V450.124H424.588V442.424H417.131V450.124H412.557Z" fill="white"/>
<path d="M431.403 434.724V430.963H447.399V434.724H441.66V450.124H437.151V434.724H431.403Z" fill="white"/>
<path d="M449.633 430.963H455.297L460.102 442.827H460.324L465.129 430.963H470.794V450.124H466.34V438.354H466.183L461.636 450.003H458.79L454.244 438.289H454.087V450.124H449.633V430.963Z" fill="white"/>
<path d="M473.647 450.124V430.963H478.221V446.363H486.094V450.124H473.647Z" fill="white"/>
</g>
<defs>
<filter id="filter0_f_251_558" x="224.971" y="138.959" width="191.241" height="361.882" filterUnits="userSpaceOnUse" color-interpolation-filters="sRGB">
<feFlood flood-opacity="0" result="BackgroundImageFix"/>
<feBlend mode="normal" in="SourceGraphic" in2="BackgroundImageFix" result="shape"/>
<feGaussianBlur stdDeviation="8.85" result="effect1_foregroundBlur_251_558"/>
</filter>
<filter id="filter1_d_251_558" x="240.178" y="159.302" width="159.85" height="329.438" filterUnits="userSpaceOnUse" color-interpolation-filters="sRGB">
<feFlood flood-opacity="0" result="BackgroundImageFix"/>
<feColorMatrix in="SourceAlpha" type="matrix" values="0 0 0 0 0 0 0 0 0 0 0 0 0 0 0 0 0 0 127 0" result="hardAlpha"/>
<feOffset dy="4"/>
<feGaussianBlur stdDeviation="2"/>
<feComposite in2="hardAlpha" operator="out"/>
<feColorMatrix type="matrix" values="0 0 0 0 0 0 0 0 0 0 0 0 0 0 0 0 0 0 0.25 0"/>
<feBlend mode="normal" in2="BackgroundImageFix" result="effect1_dropShadow_251_558"/>
<feBlend mode="normal" in="SourceGraphic" in2="effect1_dropShadow_251_558" result="shape"/>
</filter>
<filter id="filter2_d_251_558" x="408.585" y="234.179" width="81.8051" height="31.4386" filterUnits="userSpaceOnUse" color-interpolation-filters="sRGB">
<feFlood flood-opacity="0" result="BackgroundImageFix"/>
<feColorMatrix in="SourceAlpha" type="matrix" values="0 0 0 0 0 0 0 0 0 0 0 0 0 0 0 0 0 0 127 0" result="hardAlpha"/>
<feOffset dx="3" dy="2"/>
<feComposite in2="hardAlpha" operator="out"/>
<feColorMatrix type="matrix" values="0 0 0 0 0.0666667 0 0 0 0 0.496 0 0 0 0 1 0 0 0 1 0"/>
<feBlend mode="normal" in2="BackgroundImageFix" result="effect1_dropShadow_251_558"/>
<feBlend mode="normal" in="SourceGraphic" in2="effect1_dropShadow_251_558" result="shape"/>
</filter>
<filter id="filter3_d_251_558" x="148.86" y="359.963" width="57.321" height="36.1601" filterUnits="userSpaceOnUse" color-interpolation-filters="sRGB">
<feFlood flood-opacity="0" result="BackgroundImageFix"/>
<feColorMatrix in="SourceAlpha" type="matrix" values="0 0 0 0 0 0 0 0 0 0 0 0 0 0 0 0 0 0 127 0" result="hardAlpha"/>
<feOffset dx="3" dy="2"/>
<feComposite in2="hardAlpha" operator="out"/>
<feColorMatrix type="matrix" values="0 0 0 0 0.925 0 0 0 0 0.613121 0 0 0 0 0.00770833 0 0 0 1 0"/>
<feBlend mode="normal" in2="BackgroundImageFix" result="effect1_dropShadow_251_558"/>
<feBlend mode="normal" in="SourceGraphic" in2="effect1_dropShadow_251_558" result="shape"/>
</filter>
<filter id="filter4_d_251_558" x="412.557" y="430.963" width="76.5365" height="21.1609" filterUnits="userSpaceOnUse" color-interpolation-filters="sRGB">
<feFlood flood-opacity="0" result="BackgroundImageFix"/>
<feColorMatrix in="SourceAlpha" type="matrix" values="0 0 0 0 0 0 0 0 0 0 0 0 0 0 0 0 0 0 127 0" result="hardAlpha"/>
<feOffset dx="3" dy="2"/>
<feComposite in2="hardAlpha" operator="out"/>
<feColorMatrix type="matrix" values="0 0 0 0 0.733333 0 0 0 0 0.245667 0 0 0 0 0.0916667 0 0 0 1 0"/>
<feBlend mode="normal" in2="BackgroundImageFix" result="effect1_dropShadow_251_558"/>
<feBlend mode="normal" in="SourceGraphic" in2="effect1_dropShadow_251_558" result="shape"/>
</filter>
<radialGradient id="paint0_radial_251_558" cx="0" cy="0" r="1" gradientUnits="userSpaceOnUse" gradientTransform="translate(320 320) rotate(90) scale(320)">
<stop stop-color="#203A43"/>
<stop offset="1" stop-color="#0F2027"/>
</radialGradient>
<linearGradient id="paint1_linear_251_558" x1="191.561" y1="225.699" x2="229.453" y2="424.851" gradientUnits="userSpaceOnUse">
<stop stop-color="#053E2C"/>
<stop offset="1" stop-color="#3DC99E"/>
</linearGradient>
<linearGradient id="paint2_linear_251_558" x1="190.68" y1="182.961" x2="236.502" y2="290.908" gradientUnits="userSpaceOnUse">
<stop stop-color="#78FFD6"/>
<stop offset="1" stop-color="#208C6B"/>
</linearGradient>
<linearGradient id="paint3_linear_251_558" x1="447.702" y1="427.495" x2="409.81" y2="228.343" gradientUnits="userSpaceOnUse">
<stop stop-color="#053E2C"/>
<stop offset="1" stop-color="#3DC99E"/>
</linearGradient>
<linearGradient id="paint4_linear_251_558" x1="448.583" y1="470.233" x2="402.76" y2="362.286" gradientUnits="userSpaceOnUse">
<stop stop-color="#78FFD6"/>
<stop offset="1" stop-color="#208C6B"/>
</linearGradient>
<linearGradient id="paint5_linear_251_558" x1="379.698" y1="153" x2="379.698" y2="489.62" gradientUnits="userSpaceOnUse">
<stop stop-color="#B2FCE6"/>
<stop offset="0.432292" stop-color="#43F3BE"/>
</linearGradient>
<linearGradient id="paint6_linear_251_558" x1="378.376" y1="155.644" x2="378.376" y2="487.857" gradientUnits="userSpaceOnUse">
<stop stop-color="#B2FCE6"/>
<stop offset="0.432292" stop-color="#43F3BE"/>
</linearGradient>
<linearGradient id="paint7_linear_251_558" x1="472.919" y1="291.126" x2="421.821" y2="207.091" gradientUnits="userSpaceOnUse">
<stop stop-color="#4D80BB"/>
<stop offset="1" stop-color="#93DEFF"/>
</linearGradient>
<linearGradient id="paint8_linear_251_558" x1="203.397" y1="422.992" x2="149.187" y2="333.838" gradientUnits="userSpaceOnUse">
<stop stop-color="#D9A33A"/>
<stop offset="1" stop-color="#FFC224"/>
</linearGradient>
<linearGradient id="paint9_linear_251_558" x1="469.263" y1="475.758" x2="426.281" y2="405.07" gradientUnits="userSpaceOnUse">
<stop stop-color="#D14E25"/>
<stop offset="1" stop-color="#F77248"/>
</linearGradient>
</defs>
</svg>
